<?xml version="1.0" encoding="utf-8"?>
<!-- Generator: Adobe Illustrator 18.0.0, SVG Export Plug-In . SVG Version: 6.00 Build 0)  -->
<!DOCTYPE svg PUBLIC "-//W3C//DTD SVG 1.1//EN" "http://www.w3.org/Graphics/SVG/1.1/DTD/svg11.dtd">
<svg version="1.1" xmlns="http://www.w3.org/2000/svg" xmlns:xlink="http://www.w3.org/1999/xlink" x="0px" y="0px"
	 viewBox="0 0 48 48" enable-background="new 0 0 48 48" xml:space="preserve">
<g id="home">
</g>
<g id="home-1">
</g>
<g id="home-2">
</g>
<g id="home-3">
</g>
<g id="home-4">
</g>
<g id="door">
</g>
<g id="window">
</g>
<g id="home-5">
</g>
<g id="home-6">
</g>
<g id="home-7">
</g>
<g id="home-8">
</g>
<g id="office">
</g>
<g id="four-floors">
</g>
<g id="classic-pillers">
</g>
<g id="church">
</g>
<g id="detached-church">
</g>
<g id="wind-mill">
</g>
<g id="light-house">
</g>
<g id="light-house_1_">
</g>
<g id="light-house-2">
</g>
<g id="Trash_House-shutter">
</g>
<g id="Trash_House">
</g>
<g id="Layer_1">
</g>
<g id="tree-3">
</g>
<g id="tree-2">
</g>
<g id="tree-1">
</g>
<g id="tree">
</g>
<g id="round-tree-1">
</g>
<g id="round-tree">
</g>
<g id="triangle-tree-1">
</g>
<g id="triangle-tree">
</g>
<g id="ellips-tree-1">
</g>
<g id="ellipse-tree">
</g>
<g id="skyscraper-3">
</g>
<g id="long-story-house">
</g>
<g id="skyscrapers-1">
</g>
<g id="skyscraper">
</g>
<g id="large-building-7">
</g>
<g id="larg-building-6">
</g>
<g id="small-flat">
</g>
<g id="green-building">
</g>
<g id="squar-building">
</g>
<g id="bank">
</g>
<g id="gate-house-2">
</g>
<g id="gate-house">
</g>
<g id="pak-mahal">
</g>
<g id="Indian-mahal">
</g>
<g id="chinees-arch">
</g>
<g id="cathedral">
</g>
<g id="pizza">
</g>
<g id="chinees">
</g>
<g id="large-factory">
	<path fill="none" stroke="#0F0F0F" stroke-width="2" stroke-linecap="round" stroke-linejoin="round" stroke-miterlimit="10" d="
		M14,40c4.75-13.083334,4-20.3535538,4-20.3535538c2.7614231-2.7614231,7.2385769-2.7614231,10,0
		c0,0-2.166666,7.0202198,3,24.3535538"/>
	<path fill="none" stroke="#0F0F0F" stroke-width="2" stroke-linecap="round" stroke-linejoin="round" stroke-miterlimit="10" d="
		M28.0191135,18.9998474C28.3202,15.2723169,28,13.6464462,28,13.6464462c2.7614231-2.7614231,7.238575-2.7614231,10,0
		c0,0-2.1666679,7.0202198,3,24.3535538"/>
	<path fill="none" stroke="#0F0F0F" stroke-width="2" stroke-linecap="round" stroke-linejoin="round" stroke-miterlimit="10" d="
		M30,39h12.8006172C44.0153046,39,45,39.9846954,45,41.1993828V45"/>
	
		<line fill="none" stroke="#0F0F0F" stroke-width="2" stroke-linecap="round" stroke-linejoin="round" stroke-miterlimit="10" x1="3" y1="45" x2="44" y2="45"/>
	<path fill="none" stroke="#0F0F0F" stroke-width="2" stroke-linecap="round" stroke-linejoin="round" stroke-miterlimit="10" d="
		M26,44c0-1.6568604-1.3431396-3-3-3c-1.3109131,0-2.4135742,0.8461914-2.8218384,2.0179443
		C20.118042,43.0143433,20.0610352,43,20,43c-0.7814331,0-1.4867554,0.3060303-2.0206299,0.7955933
		C17.8723755,42.2359009,16.586853,41,15,41c-0.3595581,0-0.699585,0.0736084-1.019104,0.1896362
		C13.9849854,41.1256714,14,41.0649414,14,41c0-1.6568604-1.3431396-3-3-3c-0.0649414,0-0.1256714,0.0150146-0.1896362,0.019104
		C10.9263916,37.699585,11,37.3595581,11,37c0-0.7718506-0.2996826-1.4683838-0.7785645-2
		C10.7003174,34.4683838,11,33.7718506,11,33c0-0.1712646-0.0228271-0.3365479-0.050415-0.5
		C10.9771729,32.3365479,11,32.1712646,11,32c0-1.6568604-1.3431396-3-3-3c-0.0649414,0-0.1256714,0.0150146-0.1896362,0.019104
		C7.9263916,28.699585,8,28.3595581,8,28c0-1.6568604-1.3431396-3-3-3s-3,1.3431396-3,3 M7.6546021,41.5
		c0.1313477-0.0870972,0.2503052-0.1894531,0.3660278-0.2955933c0.0117188,0.1702881,0.0319824,0.3373413,0.0709229,0.4986572
		C8.0610962,41.7283936,8.0294189,41.7520752,8,41.7785645C7.8899536,41.6794434,7.7785034,41.5821533,7.6546021,41.5z"/>
	
		<line fill="none" stroke="#0F0F0F" stroke-width="2" stroke-linecap="round" stroke-linejoin="round" stroke-miterlimit="10" x1="2" y1="31" x2="2" y2="35"/>
	
		<line fill="none" stroke="#0F0F0F" stroke-width="2" stroke-linecap="round" stroke-linejoin="round" stroke-miterlimit="10" x1="4" y1="41" x2="4" y2="45"/>
	
		<line fill="none" stroke="#0F0F0F" stroke-width="2" stroke-linecap="round" stroke-linejoin="round" stroke-miterlimit="10" x1="6" y1="32" x2="6" y2="34"/>
	
		<line fill="none" stroke="#0F0F0F" stroke-width="2" stroke-linecap="round" stroke-linejoin="round" stroke-miterlimit="10" x1="26" y1="36" x2="28" y2="36"/>
	
		<line fill="none" stroke="#0F0F0F" stroke-width="2" stroke-linecap="round" stroke-linejoin="round" stroke-miterlimit="10" x1="22" y1="33" x2="24" y2="33"/>
	
		<line fill="none" stroke="#0F0F0F" stroke-width="2" stroke-linecap="round" stroke-linejoin="round" stroke-miterlimit="10" x1="18" y1="25" x2="20" y2="25"/>
	
		<line fill="none" stroke="#0F0F0F" stroke-width="2" stroke-linecap="round" stroke-linejoin="round" stroke-miterlimit="10" x1="36" y1="25" x2="38" y2="25"/>
	
		<line fill="none" stroke="#0F0F0F" stroke-width="2" stroke-linecap="round" stroke-linejoin="round" stroke-miterlimit="10" x1="33" y1="23" x2="35" y2="23"/>
	
		<line fill="none" stroke="#0F0F0F" stroke-width="2" stroke-linecap="round" stroke-linejoin="round" stroke-miterlimit="10" x1="29" y1="34" x2="31" y2="34"/>
	
		<line fill="none" stroke="#0F0F0F" stroke-width="2" stroke-linecap="round" stroke-linejoin="round" stroke-miterlimit="10" x1="31" y1="31" x2="33" y2="31"/>
	
		<line fill="none" stroke="#0F0F0F" stroke-width="2" stroke-linecap="round" stroke-linejoin="round" stroke-miterlimit="10" x1="33" y1="42" x2="33" y2="45"/>
	
		<line fill="none" stroke="#0F0F0F" stroke-width="2" stroke-linecap="round" stroke-linejoin="round" stroke-miterlimit="10" x1="37" y1="42" x2="37" y2="45"/>
	
		<line fill="none" stroke="#0F0F0F" stroke-width="2" stroke-linecap="round" stroke-linejoin="round" stroke-miterlimit="10" x1="41" y1="42" x2="41" y2="45"/>
	<path fill="none" stroke="#0F0F0F" stroke-width="2" stroke-linecap="round" stroke-linejoin="round" stroke-miterlimit="10" d="
		M33,8c0-1.3109131-0.8461914-2.4135742-2.0179443-2.8218384C30.9847412,5.1177979,31,5.0610352,31,5c0-2.2091675-1.7908325-4-4-4
		c-1.6229858,0-3.0131836,0.9707031-3.6403809,2.3596191c-0.090332,0.0408325-0.1730957,0.09375-0.2597046,0.1409302
		C22.3666382,2.5925293,21.2580566,2,20,2c-2.2091675,0-4,1.7908325-4,4c0,2.2091064,1.7908325,4,4,4
		c0.6917114,0,1.3325195-0.1915283,1.9000854-0.5005493C22.6333618,10.4075317,23.7419434,11,25,11
		c1.0514526,0,2.0006104-0.4141846,2.7145386-1.0775757C28.2648926,10.5758667,29.0787964,11,30,11
		c0.4091797,0,0.798645-0.0831909,1.1540527-0.2315063C31.4553833,11.4914551,32.1679077,12,33,12c1.1045532,0,2-0.8954468,2-2
		C35,8.8953857,34.1045532,8,33,8z"/>
</g>
<g id="factory">
</g>
<g id="villa">
</g>
<g id="shope-2">
</g>
<g id="shop">
</g>
<g id="snow-home-3">
</g>
<g id="snow-home-2">
</g>
<g id="snow-home">
</g>
<g id="small-store">
</g>
<g id="frontage-mid">
</g>
<g id="bricks-house">
</g>
<g id="old-house">
</g>
<g id="pillers-gate-2">
</g>
<g id="pillers-gate-1">
</g>
<g id="pillers-gate">
</g>
<g id="dome-pillers">
</g>
<g id="garden-piller-1">
</g>
<g id="graden-pillers">
</g>
<g id="temple-gate">
</g>
<g id="chinees-gate">
</g>
<g id="central-museum">
</g>
<g id="mosque">
</g>
<g id="garden-wall">
</g>
<g id="fire">
</g>
<g id="pyramid">
</g>
<g id="large-building-5">
</g>
<g id="large-building-4">
</g>
<g id="large-buildin-3">
</g>
<g id="large-building-2">
</g>
<g id="large-building-1">
</g>
<g id="large-building">
</g>
<g id="facto-house-1">
</g>
<g id="facto-house">
</g>
<g id="golf-area">
</g>
<g id="playground">
</g>
<g id="block-store">
</g>
<g id="favorite">
</g>
<g id="open-store">
</g>
<g id="close-store">
</g>
<g id="locate-house">
</g>
<g id="store">
</g>
<g id="block-house">
</g>
<g id="success-house">
</g>
<g id="load-house">
</g>
<g id="move-house">
</g>
<g id="close-house">
</g>
<g id="add-house">
</g>
<g id="house">
</g>
<g id="Trash_House-door">
</g>
<g id="verticle-wall">
</g>
</svg>
