<?xml version="1.0" encoding="utf-8"?>
<!-- Generator: Adobe Illustrator 18.0.0, SVG Export Plug-In . SVG Version: 6.00 Build 0)  -->
<!DOCTYPE svg PUBLIC "-//W3C//DTD SVG 1.1//EN" "http://www.w3.org/Graphics/SVG/1.1/DTD/svg11.dtd">
<svg version="1.1" xmlns="http://www.w3.org/2000/svg" xmlns:xlink="http://www.w3.org/1999/xlink" x="0px" y="0px"
	 viewBox="0 0 48 48" enable-background="new 0 0 48 48" xml:space="preserve">
<g id="Layer_1">
</g>
<g id="right-rotate">
</g>
<g id="left-rotate">
</g>
<g id="share-down">
</g>
<g id="share-top">
</g>
<g id="share-both">
</g>
<g id="share-top-right">
</g>
<g id="share-top-left">
</g>
<g id="share-right-down">
</g>
<g id="share-left-down">
</g>
<g id="recycle-arw">
</g>
<g id="verticle-hidden-arw">
</g>
<g id="horizontal-arw">
</g>
<g id="verticle-arw">
</g>
<g id="connection-arw-r">
</g>
<g id="connection-arw-l">
</g>
<g id="connection-arw">
</g>
<g id="hook-left-arw">
</g>
<g id="clock-arw">
</g>
<g id="anti-clock-arw">
</g>
<g id="infinity">
</g>
<g id="sing-sang-arw">
</g>
<g id="anti-reload">
</g>
<g id="reload">
</g>
<g id="double-arrow">
</g>
<g id="single-circle-arw">
</g>
<g id="circle-arw">
</g>
<g id="two-side-bend-arw">
</g>
<g id="left-blend-arw">
</g>
<g id="right-blend-arw">
</g>
<g id="round-extand">
</g>
<g id="round-close-arrow">
</g>
<g id="pluse-arrow">
</g>
<g id="crose-arrow">
</g>
<g id="corn-arrow">
</g>
<g id="side-arrow">
</g>
<g id="close-arrow-four">
</g>
<g id="stretch-arrow">
</g>
<g id="_x33__x2F_1-arrow">
</g>
<g id="_x32__x2F_1-arrow">
</g>
<g id="left-crose-rd">
</g>
<g id="left-crose-arrow">
</g>
<g id="left-top_arrows">
</g>
<g id="close-arrows">
</g>
<g id="extand-arrow">
</g>
<g id="parallel-arrows">
</g>
<g id="two-side_arrows">
</g>
<g id="right-arrows">
</g>
<g id="down-arrow-3">
</g>
<g id="top-arrow-3">
</g>
<g id="right-arrow-3">
</g>
<g id="left-arrow-3">
</g>
<g id="left-arrow-2">
</g>
<g id="right-arrow-2">
</g>
<g id="down-arrow-2">
</g>
<g id="top-arrow-2">
</g>
<g id="down-arrow-1">
</g>
<g id="top-arrow-1">
</g>
<g id="rightarrow-1">
</g>
<g id="left-arrow-1">
</g>
<g id="down-play">
</g>
<g id="top-play">
</g>
<g id="right-play">
</g>
<g id="left-play">
</g>
<g id="down-arrow">
</g>
<g id="top-arrow">
</g>
<g id="right-arrow">
</g>
<g id="left-arrow">
</g>
<g id="channel">
</g>
<g id="stop_1_">
</g>
<g id="music-control">
</g>
<g id="adjust-lavel">
</g>
<g id="adjustsound">
</g>
<g id="graph-point">
</g>
<g id="symbol">
</g>
<g id="visual-graph">
</g>
<g id="visual">
</g>
<g id="adjust">
</g>
<g id="controal-4">
</g>
<g id="control-3">
</g>
<g id="control-2">
</g>
<g id="control_1_">
</g>
<g id="control">
	
		<circle fill="none" stroke="#000000" stroke-width="2" stroke-linecap="round" stroke-linejoin="round" stroke-miterlimit="10" cx="24" cy="24" r="6"/>
	
		<circle fill="none" stroke="#000000" stroke-width="2" stroke-linecap="round" stroke-linejoin="round" stroke-miterlimit="10" cx="24" cy="12" r="1"/>
	
		<circle fill="none" stroke="#000000" stroke-width="2" stroke-linecap="round" stroke-linejoin="round" stroke-miterlimit="10" cx="24" cy="36" r="1"/>
	
		<circle fill="none" stroke="#000000" stroke-width="2" stroke-linecap="round" stroke-linejoin="round" stroke-miterlimit="10" cx="32.4852905" cy="15.5147171" r="1"/>
	
		<circle fill="none" stroke="#000000" stroke-width="2" stroke-linecap="round" stroke-linejoin="round" stroke-miterlimit="10" cx="15.5147095" cy="32.4852753" r="1"/>
	
		<circle fill="none" stroke="#000000" stroke-width="2" stroke-linecap="round" stroke-linejoin="round" stroke-miterlimit="10" cx="36" cy="24" r="1"/>
	
		<circle fill="none" stroke="#000000" stroke-width="2" stroke-linecap="round" stroke-linejoin="round" stroke-miterlimit="10" cx="12" cy="24" r="1"/>
	
		<circle fill="none" stroke="#000000" stroke-width="2" stroke-linecap="round" stroke-linejoin="round" stroke-miterlimit="10" cx="32.4852905" cy="32.4852753" r="1"/>
	
		<circle fill="none" stroke="#000000" stroke-width="2" stroke-linecap="round" stroke-linejoin="round" stroke-miterlimit="10" cx="15.5147095" cy="15.5147171" r="1"/>
	<g>
		<path fill="none" stroke="#000000" stroke-width="2" stroke-linecap="round" stroke-linejoin="round" stroke-miterlimit="10" d="
			M45.4199982,24c0,0.9464035-0.8989487,1.8228874-1.0202408,2.7361298
			c-0.1240997,0.9343605,0.5119476,2.0149879,0.2691727,2.9063454c-0.2469177,0.9065628-1.345108,1.5147305-1.7060356,2.3680611
			c-0.3523102,0.8329544-0.0074692,2.0140991-0.4601021,2.7880287c-0.4556007,0.7789955-1.6549187,1.0572853-2.2038193,1.7681351
			c-0.550621,0.7130814-0.5166702,1.9434509-1.1527443,2.5795288c-0.6360855,0.6360817-1.8664627,0.6021385-2.5795555,1.1527672
			c-0.710907,0.5489388-0.9892578,1.748291-1.7683144,2.2039146c-0.7738686,0.4525909-1.9549408,0.1077042-2.7878227,0.4599838
			c-0.8533249,0.3609238-1.461483,1.4591103-2.3680382,1.706028c-0.8915901,0.2428398-1.9724483-0.3931732-2.9070644-0.2690735
			C25.8224182,44.52108,24.9461575,45.4199982,24,45.4199982c-0.9464035,0-1.8228874-0.8989487-2.7361298-1.0202408
			c-0.9343605-0.1240997-2.0149879,0.5119476-2.9063454,0.2691727c-0.9065628-0.2469177-1.5147305-1.345108-2.3680611-1.7060356
			c-0.8329563-0.3523102-2.0140991-0.0074692-2.7880287-0.4601021c-0.7789965-0.4556007-1.0572834-1.6549187-1.768136-2.2038193
			c-0.7130823-0.550621-1.94345-0.5166702-2.5795259-1.1527443c-0.6360846-0.6360855-0.6021395-1.8664627-1.1527681-2.5795555
			c-0.5489397-0.710907-1.7482929-0.9892578-2.203917-1.7683144c-0.4525881-0.7738686-0.1077018-1.9549408-0.4599819-2.7878227
			c-0.3609257-0.853323-1.4591119-1.461483-1.7060282-2.3680382c-0.2428408-0.8915901,0.3931737-1.9724483,0.2690732-2.9070644
			C3.4789183,25.8224182,2.5799999,24.9461575,2.5799999,24c0-0.9464035,0.8989489-1.8228874,1.0202434-2.7361298
			c0.1240993-0.9343605-0.5119479-2.0149879-0.269172-2.9063454c0.2469177-0.9065628,1.3451061-1.5147305,1.7060347-2.3680611
			c0.3523107-0.8329563,0.0074668-2.0140991,0.4601026-2.7880287c0.4555993-0.7789965,1.6549177-1.0572834,2.2038183-1.768136
			c0.5506229-0.7130823,0.5166702-1.94345,1.1527462-2.5795259c0.6360846-0.6360846,1.8664618-0.6021395,2.5795546-1.1527681
			c0.7109051-0.5489397,0.989255-1.7482929,1.7683144-2.203917c0.7738667-0.4525881,1.9549379-0.1077018,2.7878218-0.4599819
			c0.8533249-0.3609257,1.461483-1.4591119,2.3680382-1.7060282c0.8915901-0.2428408,1.9724483,0.3931737,2.9070644,0.2690732
			C22.1775818,3.4789183,23.0538425,2.5799999,24,2.5799999c0.9464035,0,1.8228874,0.8989489,2.7361298,1.0202434
			c0.9343605,0.1240993,2.0149879-0.5119479,2.9063454-0.269172c0.9065628,0.2469177,1.5147305,1.3451061,2.3680611,1.7060347
			c0.8329544,0.3523107,2.0140991,0.0074668,2.7880287,0.4601026c0.7789955,0.4555993,1.0572853,1.6549177,1.7681351,2.2038183
			c0.7130814,0.5506229,1.9434509,0.5166702,2.5795288,1.1527462c0.6360817,0.6360846,0.6021385,1.8664618,1.1527672,2.5795546
			c0.5489388,0.7109051,1.748291,0.989255,2.2039146,1.7683144c0.4525909,0.7738667,0.1077042,1.9549379,0.4599838,2.7878218
			c0.3609238,0.853323,1.4591103,1.461483,1.706028,2.3680382c0.2428398,0.8915901-0.3931732,1.9724483-0.2690735,2.9070644
			C44.52108,22.1775818,45.4199982,23.0538425,45.4199982,24z"/>
	</g>
</g>
<g id="volume-increase">
</g>
<g id="volume">
</g>
<g id="volume-close">
</g>
<g id="volume-minus">
</g>
<g id="volume-pluse">
</g>
<g id="block">
</g>
<g id="sound">
</g>
<g id="play-backward">
</g>
<g id="backward">
</g>
<g id="play">
</g>
<g id="hold">
</g>
<g id="stop">
</g>
<g id="pause">
</g>
<g id="forward">
</g>
<g id="play-forward">
</g>
<g id="top-bottom-arrow">
</g>
<g id="hook-right-arw">
</g>
</svg>
