<?xml version="1.0" encoding="utf-8"?>
<!-- Generator: Adobe Illustrator 18.0.0, SVG Export Plug-In . SVG Version: 6.00 Build 0)  -->
<!DOCTYPE svg PUBLIC "-//W3C//DTD SVG 1.1//EN" "http://www.w3.org/Graphics/SVG/1.1/DTD/svg11.dtd">
<svg version="1.1" xmlns="http://www.w3.org/2000/svg" xmlns:xlink="http://www.w3.org/1999/xlink" x="0px" y="0px"
	 viewBox="0 0 48 48" enable-background="new 0 0 48 48" xml:space="preserve">
<g id="Layer_1">
</g>
<g id="telivision-stand">
</g>
<g id="chair-wheels">
</g>
<g id="large-bed">
</g>
<g id="round-lamp">
</g>
<g id="shower">
</g>
<g id="knight">
</g>
<g id="vacuum-cleaner">
</g>
<g id="heat-food">
</g>
<g id="chimney">
</g>
<g id="large-sound">
</g>
<g id="small-tape">
</g>
<g id="sound-system-3">
</g>
<g id="sound-system-2">
</g>
<g id="sound-system_1_">
</g>
<g id="old-taper">
</g>
<g id="audio-system">
</g>
<g id="music-player">
</g>
<g id="speeker-2">
</g>
<g id="speaker">
</g>
<g id="jar-2">
</g>
<g id="cup">
</g>
<g id="jug">
</g>
<g id="pan">
</g>
<g id="jars">
</g>
<g id="mixer_1_">
</g>
<g id="mixer">
</g>
<g id="dish-cleaner">
</g>
<g id="wooden-window">
</g>
<g id="doublw-window">
</g>
<g id="bishop-window">
</g>
<g id="old_window">
</g>
<g id="long-table">
</g>
<g id="window-2_1_">
</g>
<g id="mirror-1">
</g>
<g id="mirror">
</g>
<g id="window-2">
</g>
<g id="window">
</g>
<g id="semi-sofa">
</g>
<g id="study-lamp">
</g>
<g id="study-table_1_">
</g>
<g id="study-table">
</g>
<g id="pawn">
</g>
<g id="bed-set">
</g>
<g id="table-xl">
</g>
<g id="back-stool">
</g>
<g id="chair-xs">
</g>
<g id="chair-l">
</g>
<g id="fat_chair">
</g>
<g id="hanger">
</g>
<g id="table-lamp">
</g>
<g id="double-table">
</g>
<g id="wooden-table">
</g>
<g id="book-shelve-l">
</g>
<g id="book-shelve">
</g>
<g id="wall-dec">
</g>
<g id="fram">
</g>
<g id="table-wood-l">
</g>
<g id="cleaner">
</g>
<g id="microwave-2_1_">
</g>
<g id="indection">
</g>
<g id="air-conditioners">
</g>
<g id="sound-system">
</g>
<g id="television">
</g>
<g id="round-clock">
</g>
<g id="rectangular-clock">
</g>
<g id="radio">
</g>
<g id="heater">
</g>
<g id="dish-washer">
</g>
<g id="washing-machine">
</g>
<g id="microwave-s">
</g>
<g id="microwave-m">
</g>
<g id="microwave-2">
</g>
<g id="microwave">
</g>
<g id="dinning-set">
</g>
<g id="dinning-table">
</g>
<g id="table-1">
</g>
<g id="cross-table">
</g>
<g id="tall-table">
</g>
<g id="round-table">
</g>
<g id="chair">
</g>
<g id="stool">
</g>
<g id="king-sofa">
</g>
<g id="woodensofa">
</g>
<g id="sifa-1">
</g>
<g id="sofa-2">
	<path fill="none" stroke="#080808" stroke-width="2" stroke-linejoin="round" stroke-miterlimit="10" d="M40,23.9999962V26
		c0,1.1045704-0.6840057,2-1.7885742,2H9.7885742C8.6840048,28,8,27.1045704,8,26v-2.0000038C8,22.3431435,6.5511427,21,4.89429,21
		h0.0528507C3.290288,21,2,22.3431435,2,23.9999962V25v3c0,3.3137093,2.4748659,6,5.7885742,6h32.4228516h-0.1057053
		C43.419426,34,46,31.3137112,46,28.0000057V25v-1.0000038C46,22.3431435,44.7625694,21,43.1057167,21h-0.0528641
		C41.3959999,21,40,22.3431435,40,23.9999962z"/>
	<path fill="none" stroke="#080808" stroke-width="2" stroke-linejoin="round" stroke-miterlimit="10" d="M6,21v-6
		c0-3.9827604,3.0172396-7,7-7h22c3.9827614,0,7,3.0172396,7,7v6"/>
	<path fill="none" stroke="#080808" stroke-width="2" stroke-linejoin="round" stroke-miterlimit="10" d="M7,34v8.8532333
		C7,43.4865761,7.4077125,44,8.0410547,44H7.9882002c0.506422,0,0.9264565-0.3321838,1.0719757-0.8172455L11.9075012,34"/>
	<path fill="none" stroke="#080808" stroke-width="2" stroke-linejoin="round" stroke-miterlimit="10" d="M36,34
		l2.7548256,9.1827545C38.9003448,43.6678162,39.3468094,44,39.8532295,44h0.0000038C40.4865761,44,41,43.4865761,41,42.8532333V34"
		/>
</g>
<g id="bed-2">
</g>
<g id="bed">
</g>
<g id="door-m">
</g>
<g id="door-2">
</g>
<g id="door">
</g>
<g id="storage-3">
</g>
<g id="storage-s">
</g>
<g id="shelve-l">
</g>
<g id="shelves-xl">
</g>
<g id="refrigerator-l">
</g>
<g id="refrigerator-s">
</g>
<g id="refrigerator">
</g>
<g id="Layer_2">
</g>
<g id="air-cooler">
</g>
<g id="food-maker">
</g>
<g id="storage-2">
</g>
</svg>
