<?xml version="1.0" encoding="utf-8"?><!DOCTYPE svg PUBLIC "-//W3C//DTD SVG 1.1//EN" "http://www.w3.org/Graphics/SVG/1.1/DTD/svg11.dtd"><svg version="1.1" id="Layer_1" xmlns="http://www.w3.org/2000/svg" xmlns:xlink="http://www.w3.org/1999/xlink" x="0px" y="0px" viewBox="-10 -10 120 120" xml:space="preserve"><defs><mask id="shaddowMask">      <rect width="100%" height="100%" fill="black"/>      <circle cx="50" cy="50" r="49" fill="white"/></mask></defs><path stroke="none" stroke-width="1" fill="#1b3024"  d="M60.04 12.52 L89.15 37.66 L84.24 43.36 L87.19 45.91 L66.21 70.02 L63.15 67.56 L45.94 87.48 L32.7 76.04 L31.09 77.9 L10.85 60.42 L45.44 20.36 L49.93 24.23" /><path stroke="#1b3024" stroke-width="1" fill="none"  d="M45.94 87.48 L32.7 76.04 L31.09 77.9 L10.85 60.42 L45.44 20.36 L49.93 24.23 L60.04 12.52" /><path d="M10.9293289968 81.2006837643 A50 50 0 1 1 89.5420169474 80.6011257265" stroke="#1b3024" stroke-width="1" fill="none"  /><path d="M89.5420169474 80.6011257265 A50 50 0 0 1 10.9293289968 81.2006837643" stroke="#26bf75" stroke-width="1" fill="none"  /><path stroke="#26bf75" stroke-width="1" fill="none"  d="M87.9603362695 79.3770806975 L91.1236976253 81.8251707556" /><path stroke="#26bf75" stroke-width="1" fill="none"  d="M12.4921558369 79.9526564137 L9.36650215665 82.4487111148" /><path d="M50.0 -8.0 A58 58 0 0 1 50.0 -8.0" stroke="#1b3024" stroke-width="3" fill="none" stroke-opacity="0.2"  /><path d="M50.0 -8.0 A58 58 0 0 1 50.0 -8.0" stroke="#1b3024" stroke-width="3" fill="none"  /><path d="M50.0 -8.0 A58 58 0 0 1 50.0 -8.0" stroke="#1b3024" stroke-width="3" fill="none" stroke-opacity="0.2"  /><path d="M50.0 -8.0 A58 58 0 0 1 50.0 -8.0" stroke="#1b3024" stroke-width="3" fill="none"  /><path d="M50.0 -8.0 A58 58 0 0 1 50.0 -8.0" stroke="#1b3024" stroke-width="3" fill="none" stroke-opacity="0.2"  /><path d="M50.0 -8.0 A58 58 0 0 1 50.0 -8.0" stroke="#1b3024" stroke-width="3" fill="none"  /><path d="M50.0 -8.0 A58 58 0 0 1 50.0 -8.0" stroke="#1b3024" stroke-width="3" fill="none" stroke-opacity="0.2"  /><path d="M50.0 -8.0 A58 58 0 0 1 50.0 -8.0" stroke="#1b3024" stroke-width="3" fill="none"  /><path d="M50.0 -8.0 A58 58 0 0 1 50.0 -8.0" stroke="#1b3024" stroke-width="3" fill="none" stroke-opacity="0.2"  /><path d="M50.0 -8.0 A58 58 0 0 1 50.0 -8.0" stroke="#1b3024" stroke-width="3" fill="none"  /><path d="M50.0 -8.0 A58 58 0 0 1 50.0 -8.0" stroke="#1b3024" stroke-width="3" fill="none" stroke-opacity="0.2"  /><path d="M50.0 -8.0 A58 58 0 0 1 50.0 -8.0" stroke="#1b3024" stroke-width="3" fill="none"  /><path d="M50.0 -8.0 A58 58 0 0 1 50.0 -8.0" stroke="#1b3024" stroke-width="3" fill="none" stroke-opacity="0.2"  /><path d="M50.0 -8.0 A58 58 0 0 1 50.0 -8.0" stroke="#1b3024" stroke-width="3" fill="none"  /><path d="M50.0 -8.0 A58 58 0 0 1 50.0 -8.0" stroke="#1b3024" stroke-width="3" fill="none" stroke-opacity="0.2"  /><path d="M50.0 -8.0 A58 58 0 0 1 50.0 -8.0" stroke="#1b3024" stroke-width="3" fill="none"  /><path d="M50.0 -8.0 A58 58 0 0 1 50.0 -8.0" stroke="#1b3024" stroke-width="3" fill="none" stroke-opacity="0.2"  /><path d="M50.0 -8.0 A58 58 0 0 1 50.0 -8.0" stroke="#1b3024" stroke-width="3" fill="none"  /><path d="M50.0 -8.0 A58 58 0 0 1 50.0 -8.0" stroke="#1b3024" stroke-width="3" fill="none" stroke-opacity="0.2"  /><path d="M50.0 -8.0 A58 58 0 0 1 50.0 -8.0" stroke="#1b3024" stroke-width="3" fill="none"  /><path d="M50.0 -8.0 A58 58 0 0 1 50.0 -8.0" stroke="#1b3024" stroke-width="3" fill="none" stroke-opacity="0.2"  /><path d="M50.0 -8.0 A58 58 0 0 1 50.0 -8.0" stroke="#1b3024" stroke-width="3" fill="none"  /><path d="M50.0 -8.0 A58 58 0 0 1 50.0 -8.0" stroke="#1b3024" stroke-width="3" fill="none" stroke-opacity="0.2"  /><path d="M50.0 -8.0 A58 58 0 0 1 50.0 -8.0" stroke="#1b3024" stroke-width="3" fill="none"  /><path stroke="#26bf75" stroke-width="1" fill="none"  d="M50.0 -5.0 L50.0 -11.0" /><path stroke="#26bf75" stroke-width="1" fill="none"  d="M50.0 -5.0 L50.0 -11.0" /><circle cx="2.97510671849" cy="66.9899797487" r="3" stroke="#26bf75" stroke-width="1" fill="#26bf75" /></svg>