<?xml version="1.0" encoding="utf-8"?>
<!-- Generator: Adobe Illustrator 18.0.0, SVG Export Plug-In . SVG Version: 6.00 Build 0)  -->
<!DOCTYPE svg PUBLIC "-//W3C//DTD SVG 1.1//EN" "http://www.w3.org/Graphics/SVG/1.1/DTD/svg11.dtd">
<svg version="1.1" xmlns="http://www.w3.org/2000/svg" xmlns:xlink="http://www.w3.org/1999/xlink" x="0px" y="0px"
	 viewBox="0 0 48 48" enable-background="new 0 0 48 48" xml:space="preserve">
<g id="Layer_1">
</g>
<g id="medium-box">
</g>
<g id="minuse">
</g>
<g id="timer">
</g>
<g id="drawer-2">
</g>
<g id="trash-box">
</g>
<g id="book-label">
</g>
<g id="folder-label">
</g>
<g id="page-back">
</g>
<g id="close-page_1_">
</g>
<g id="pages">
</g>
<g id="list">
</g>
<g id="wave">
</g>
<g id="close-page">
</g>
<g id="add-page">
</g>
<g id="code">
</g>
<g id="shift-mode">
</g>
<g id="bookmarks_1_">
</g>
<g id="bookmarks">
</g>
<g id="open-pages">
</g>
<g id="note">
</g>
<g id="locater">
</g>
<g id="navigater">
</g>
<g id="alarm">
</g>
<g id="clock">
</g>
<g id="time-3">
</g>
<g id="time-1">
</g>
<g id="time">
</g>
<g id="downloads">
</g>
<g id="uploads">
</g>
<g id="drawer-1">
</g>
<g id="mail_drawer">
</g>
<g id="drawer">
</g>
<g id="mail_1_">
</g>
<g id="mail-open">
</g>
<g id="open">
</g>
<g id="card">
</g>
<g id="mails">
</g>
<g id="mail">
</g>
<g id="drag-l-t">
</g>
<g id="comment">
</g>
<g id="folder">
</g>
<g id="trash">
</g>
<g id="report-flag">
</g>
<g id="setting-roll">
	<g>
		<path fill="none" stroke="#000000" stroke-width="2" stroke-linecap="round" stroke-linejoin="round" stroke-miterlimit="10" d="
			M44.4,20.7l-2.8-0.5c-0.5-2.1-1.3-4.2-2.5-5.9l1.6-2.3c0.6-0.8,0.5-1.9-0.2-2.6l-0.9-0.9l-0.9-0.9c-0.7-0.7-1.8-0.8-2.6-0.2
			l-2.3,1.6c-1.8-1.2-3.8-2-5.9-2.5l-0.5-2.8c-0.2-1-1-1.6-2-1.6H24h-1.3c-1,0-1.8,0.7-2,1.6l-0.5,2.8C18,6.9,16,7.7,14.3,8.9
			l-2.3-1.6c-0.8-0.6-1.9-0.5-2.6,0.2L8.4,8.4L7.5,9.4c-0.7,0.7-0.8,1.8-0.2,2.6l1.6,2.3c-1.2,1.8-2,3.8-2.5,5.9l-2.8,0.5
			c-1,0.2-1.6,1-1.6,2V24v1.3c0,1,0.7,1.8,1.6,2l2.8,0.5C6.9,30,7.7,32,8.9,33.7l-1.6,2.3c-0.6,0.8-0.5,1.9,0.2,2.6l0.9,0.9l0.9,0.9
			c0.7,0.7,1.8,0.8,2.6,0.2l2.3-1.6c1.8,1.2,3.8,2,5.9,2.5l0.5,2.8c0.2,1,1,1.6,2,1.6H24h1.3c1,0,1.8-0.7,2-1.6l0.5-2.8
			c2.1-0.5,4.2-1.3,5.9-2.5l2.3,1.6c0.8,0.6,1.9,0.5,2.6-0.2l0.9-0.9l0.9-0.9c0.7-0.7,0.8-1.8,0.2-2.6l-1.6-2.3
			c1.2-1.8,2-3.8,2.5-5.9l2.8-0.5c1-0.2,1.6-1,1.6-2V24v-1.3C46,21.7,45.3,20.9,44.4,20.7z"/>
		
			<circle fill="none" stroke="#000000" stroke-width="2" stroke-linecap="round" stroke-linejoin="round" stroke-miterlimit="10" cx="24" cy="24" r="8"/>
	</g>
</g>
<g id="spects">
</g>
<g id="search_1_">
</g>
<g id="game-2">
</g>
<g id="game">
</g>
<g id="unloack">
</g>
<g id="loack">
</g>
<g id="settings-ui">
</g>
<g id="abacuse">
</g>
<g id="browser-check-box">
</g>
<g id="browser-reload">
</g>
<g id="browser-check">
</g>
<g id="browser-close">
</g>
<g id="browser-inus">
</g>
<g id="browser-add">
</g>
<g id="flowtting">
</g>
<g id="drag">
</g>
<g id="popup">
</g>
<g id="latter">
</g>
<g id="details">
</g>
<g id="blocks">
</g>
<g id="locate">
</g>
<g id="parabolla">
</g>
<g id="check-box">
</g>
<g id="slide-nav">
</g>
<g id="share">
</g>
<g id="profile">
</g>
<g id="settings">
</g>
<g id="expand">
</g>
<g id="image">
</g>
<g id="pause">
</g>
<g id="player">
</g>
<g id="imager">
</g>
<g id="slider">
</g>
<g id="slide-count">
</g>
<g id="progress-bar">
</g>
<g id="graph">
</g>
<g id="statistics">
</g>
<g id="cloud-reload">
</g>
<g id="cloud-down">
</g>
<g id="cloud-up">
</g>
<g id="cloud">
</g>
<g id="masonary">
</g>
<g id="column">
</g>
<g id="grid-block">
</g>
<g id="horizontal">
</g>
<g id="_x35_-column">
</g>
<g id="_x31_-column">
</g>
<g id="_x33_-column">
</g>
<g id="sidebar_1_">
</g>
<g id="favorite">
</g>
<g id="load">
</g>
<g id="search-list">
</g>
<g id="search">
</g>
<g id="browser_1_">
</g>
<g id="change-mode">
</g>
<g id="tick">
</g>
</svg>
